<?xml version="1.0" standalone="yes"?>
<svg width="842" height="595">
<path style="fill:#000000; stroke:none;" d="M0 0L0 595L842 595L842 0L0 0z"/>
<path style="fill:#ffffff; stroke:none;" d="M188 334C201.097 372.4 237.059 419.661 278 429.346C299.338 434.393 323.635 428.957 337.471 411C342.482 404.496 347.849 392.413 344.258 384.11C342.218 379.393 337.516 380.701 334 382.812C318.864 391.9 305.509 397.291 288 390.771C254.11 378.151 234.401 345.507 217 316C229.174 313.904 241.999 306.734 253 301.247C288.636 283.473 325.085 257.164 343.742 221C359.043 191.34 358.871 155.064 327 136.873C253.918 95.158 158.903 142.651 109.729 200C89.1288 224.025 68.1929 256.687 72.2863 290C74.5702 308.587 87.4419 327.913 108 327.921C119.943 327.926 134.753 315.575 142.994 329.003C147.589 336.49 142.105 344.642 139.746 352C135.864 364.112 133.066 378.296 135.468 391C137.589 402.219 155.486 413.718 164.297 401.891C169.219 395.286 166.012 385.55 168.015 378C172.029 362.874 180.138 347.47 188 334z"/>
<path style="fill:#000000; stroke:none;" d="M238.667 137.333L239.333 137.667L238.667 137.333M90 259L91 259C116.283 198.272 175.378 158.391 236 139C224.629 134.932 201.531 147.213 191 151.72C146.326 170.84 103.124 210.92 90 259z"/>
<path style="fill:#ffffff; stroke:none;" d="M657 215C649.678 222.008 636.117 228.51 634 239C642.646 237.464 649.861 233.654 659 234.039C690.107 235.351 718.542 251.082 734.547 278C739.031 285.541 740.899 293.902 744 302C752.55 298.506 749.134 292.18 750.928 285C752.723 277.819 756.742 271.303 758 264C762.122 267.551 765.544 271.785 771 273.362C784.079 277.142 806.973 270.315 802 253C839.315 233.629 802.601 166.286 766 175C756.945 154.018 730.525 143.578 709 150L709 146C684.03 140.832 653.458 135.73 638.996 164C631.656 178.349 632.143 220.71 657 215z"/>
<path style="fill:#000000; stroke:none;" d="M659 177L660 176C663.76 178.876 671.969 185.338 672.932 190.09C676.239 206.411 650.831 225.214 640 233L640 234C660.845 227.392 687.559 233.46 706 244.453C713.817 249.113 719.668 255.835 727 261L704 240C731.817 249.496 739.47 270.282 745 297L749.359 280L767 236L789 247L770 243C768.17 248.375 761.137 258.315 763.503 263.907C770.462 280.352 799.196 270.459 800 255L792 257C796.383 248.621 807.428 248.301 811.29 238C821.809 209.945 797.001 177.003 768 177C768.707 181.521 768.048 185.511 765 189C764.997 164.571 741.125 149.478 718 151.09C710.033 151.645 702.602 157.345 695 157L704 149C685.062 134.834 651.589 146.399 641.403 166C636.04 176.319 636.842 191.359 640.699 202C647.568 220.95 662.942 207.77 666.036 194C667.292 188.412 660.823 182.259 659 177M157 313C172.269 289.925 185.719 265.195 199.139 241C203.674 232.823 207.593 216.678 216.015 211.953C227.58 205.466 236.857 221.954 238.38 231C241.788 251.232 223.472 272.661 216 290C257.854 280.059 292.97 238.826 309.281 201C316.26 184.814 327.268 156.064 304 148.359C286.538 142.576 265.93 147.028 249 152.667C206.423 166.848 168.018 197.315 139 231C125.734 246.4 105.117 272.975 110.761 295C114.396 309.188 124.895 302.096 136 303.17C144.918 304.032 150.474 307.043 157 313z"/>
<path style="fill:#ffffff; stroke:none;" d="M619 181.613C614.123 182.772 611.151 187.459 607 189.925C599.756 194.229 590.251 196.451 582 197.725C549.083 202.809 515.712 198.145 483 206.13C471.062 209.044 454.876 213.722 448.228 225.001C437.419 243.336 456.648 252.651 467.985 262.95C470.993 265.682 476.439 269.57 476.763 274C477.297 281.3 468.345 292.233 465.604 299C458.586 316.325 454.261 337.829 460.699 356C465.769 370.309 481.515 381.236 496.999 376.347C500.219 375.331 505.483 371.596 502.953 367.637C499.125 361.649 490.619 360.233 486.825 353C476.806 333.899 491.117 307.214 501.061 291C512.007 273.152 525.064 256.642 538.95 241C543.103 236.321 548.895 226.622 555.039 224.693C559.624 223.254 567.097 225 572 225C588.607 225 608.405 226.499 623 216.892C631.068 211.581 634.846 203.565 633.895 194C633.204 187.055 626.526 179.823 619 181.613z"/>
<path style="fill:#000000; stroke:none;" d="M327 183C319.862 209.152 304.094 232.72 286.575 253C280.172 260.411 271.628 266.016 266 274C292.141 261.634 312.626 235.019 321.667 208C323.991 201.054 329.234 190.286 327 183M670.333 190.667L670.667 191.333L670.333 190.667M669 194L670 195L669 194M668.333 196.667L668.667 197.333L668.333 196.667M667 199L668 200L667 199M606 201L607 202L606 201M666 201L664 205L665 205L666 201M474 218L474 219C517.132 207.47 561.595 212.951 605 203C596.641 200.462 583.064 205.888 574 205.996C540.744 206.392 505.259 205.179 474 218M663 206L662 208L663 206M661 209L659 212L661 209M472 219L473 220L472 219M470 220L471 221L470 220M515 221C498.142 227.36 477.332 229.048 466 245C474.243 246.976 480.901 252.363 486 259L488 259L506.261 234L515 221M511 241L509 244L511 241M212 242L211 244L212 242M766 244L767 245L766 244M210 245C192.007 268.408 176.929 294.645 163.753 321C156.444 335.621 148.138 353.379 148 370L149 370C150.578 359.464 156.722 349.521 161.219 340C170.832 319.65 181.365 299.618 192.424 280C197.411 271.154 210.1 255.087 210 245M508 245C484.275 272.178 457.437 314.412 468 352L469 352C465.542 324.639 475.601 300.46 489.001 277C494.06 268.142 506.837 254.82 508 245z"/>
<path style="fill:#ffffff; stroke:none;" d="M424 297C424 300.632 425.073 306.419 422.972 309.581C420.638 313.095 413.648 314.384 410 316.259C401.704 320.525 393.46 326.928 390.133 336C380.182 363.142 415.359 369.269 433 359.12C460.636 343.222 449.873 305.703 451.039 280C451.483 270.226 458.651 251.352 444 248.344C420.871 243.595 424.449 273.908 413.985 286.985C410.106 291.832 398.117 296.922 397.137 303.001C396.272 308.364 402.919 310.354 407 309.782C414.363 308.749 419.216 301.985 424 297z"/>
<path style="fill:#000000; stroke:none;" d="M763 251L764 252L763 251z"/>
<path style="fill:#ffffff; stroke:none;" d="M560 255.439C543.445 258.046 539.611 268.261 530.49 279.83C520.463 292.549 510.91 300.773 508.95 318C506.51 339.438 518.758 359.927 543 356.571C571.315 352.651 594.246 328.306 600.869 301C607.36 274.238 588.1 251.014 560 255.439M339 319C360.046 324.914 384.268 313.541 396.56 296C403.378 286.271 407.682 267.696 395.985 259.703C386.429 253.173 371.118 255.812 361 259.345C337.926 267.401 317.284 291.202 311.654 315C309.3 324.95 308.587 337.209 314.8 345.996C326.121 362.008 352.878 361.757 369 354.218C376.033 350.93 390.87 343.466 384.82 333.148C382.421 329.056 377.428 329.885 374 332.032C365.089 337.61 340.902 361.523 335.534 339C334.982 336.683 335.057 334.332 335.465 332C336.24 327.574 337.989 323.371 339 319M676 272C671.75 292.534 660.75 313.957 647.385 329.996C644.513 333.442 641.141 336.95 637 338.861C633.183 340.623 627.446 339.783 626.361 345.044C624.878 352.237 632.273 355.312 638 355.826C649.201 356.831 659.704 350.338 668 343.535C685.428 329.244 703.525 301.381 703.946 278C704.483 248.199 668.82 260.908 656 272C661.938 247.045 634.525 259.545 626.439 271C606.303 299.525 589.931 337.757 583.004 372C581.164 381.096 579.449 392.361 583.839 400.996C587.804 408.792 600.261 414.212 607.892 408.347C617.075 401.289 614.366 375.967 616.887 365C624.904 330.136 639.911 287.105 676 272z"/>
<path style="fill:#000000; stroke:none;" d="M89 260L90 261L89 260M88 263L89 264L88 263M729 264L731 266L729 264M87 265L88 266L87 265M368 265L369 266L368 265M318 338L319 338C319 309.973 340.288 276.856 367 267C360.147 265.583 351.157 272.976 346 276.899C326.557 291.688 318 314.409 318 338M732 268L733 269L732 268M558 273C564.221 277.73 572.318 287.573 562.891 294.262C559.074 296.97 553.944 296.89 550 299.649C541.173 305.823 525.791 326.277 532.179 337.941C537.511 347.678 550.234 336.531 554.999 331.961C566.339 321.084 577.692 305.806 580.535 290C583.227 275.04 571.419 267.337 558 273M676 271L677 272L676 271M346 307C364.307 305.402 382.601 291.226 383 272C367.462 276.476 352.769 292.69 346 307M655 272L656 273L655 272M435 273C431.959 297.066 432.627 320.553 425 344L426 344C435.423 327.794 438.46 304.426 436.285 286C435.776 281.681 436.693 277.035 435 273M736 274L737 275L736 274M634 276L635 277L634 276M633 278C617.534 299.593 600.614 328.186 597 355L598 355L622.247 301L633 278M390 279C386.407 291.449 376.311 299.964 366 307L366 308C376.606 306.108 394.402 291.41 390 279M739 279L740 280L739 279M683 281C677.899 302.475 662.662 318.072 653 337C666.267 327.654 674.616 312.094 679.667 297C681.266 292.219 684.515 285.988 683 281M519 310L520 310C527.095 297.256 537.672 286.919 552 283C537.463 277.8 521.825 298.108 519 310M588 285C587.038 306.057 570.081 317.569 562 335C574.468 326.474 595.098 301.92 588 285M424 295L425 296L424 295M364 308L365 309L364 308M421 320C416.875 322.165 412.587 324.259 409.039 327.329C405.373 330.501 391.927 349.704 405.015 349.704C414.746 349.704 423.857 327.986 421 320M214 337C226.264 379.571 277.963 427.187 323 401L323 400C314.084 402.063 305.361 405.751 296 404.829C256.747 400.965 236.914 363.255 214 337M424 345L425 346L424 345M469 353L470 354L469 353M470 355L471 356L470 355M596 356L597 357L596 356z"/>
<path style="fill:#ffffff; stroke:none;" d="M629 371L629 417L660 394L660 410L683 393L683 405L702 392L702 390L683 378L683 390L660 375L660 392L629 371z"/>
<path style="fill:#000000; stroke:none;" d="M324 399L325 400L324 399z"/>
<path style="fill:#ffffff; stroke:none;" d="M58 441C64.0894 450.296 85.9821 457.225 96 462.247C110.482 469.507 127.148 482.208 143 485.61C151.344 487.4 161.524 484.414 170 484.039C193.367 483.007 216.644 480.071 240 479.039C310.39 475.93 380.709 468.908 451 464.09C555.007 456.96 659.074 450.202 763 442L743 441L702 441L558 441L58 441M434 473L434 474L477 495.273L512 493.17L569 489.09L717 478.91L787 474L756 473L684 473L434 473M213 504C216.738 509.706 226.117 512.127 232 515.309C239.127 519.163 246.996 524.882 255 526.61C270.943 530.05 293.746 524.717 310 523.17C395.102 515.071 480.775 511.726 566 505L535 504L463 504L213 504z"/>
</svg>
